# xmcd
#
# Track frame offsets:
#	150
#	15585
#	28587
#	39837
#	57755
#	68992
#	85582
#	103205
#	120147
#	131812
#	143467
#	155307
#	169320
#	184787
#	196580
#	208552
#	235172
#	259862
#
# Disc length: 3636 seconds
#
# Revision: 0
# Processed by: cddbd v1.4PL0 Copyright (c) Steve Scherf et al.
# Submitted via: audiograbber 1.80
#
DISCID=e30e3212
DTITLE=Mahalia Jackson - I'm On My Way
DYEAR=1900
DGENRE=
TTITLE0=I'm On My Way
TTITLE1=An Evening Prayer
TTITLE2=Joshua Fit The Battle Of Jericho
TTITLE3=A City Called Heaven
TTITLE4=Keep Your Hands On The Plow
TTITLE5=The Lord's Prayer
TTITLE6=When The Saints Go Marching In
TTITLE7=My God Is Real (Yes, God Is Real)
TTITLE8=Didn't It Rain
TTITLE9=He's Got The Whole World In His Hands
TTITLE10=Walk Over God's Heaven
TTITLE11=Go Tell It On The Mountain
TTITLE12=It Don't Cost Very Much
TTITLE13=I'm Going To Live The Life I Sing About In My Song
TTITLE14=Nobody Knows The Trouble I've Seen
TTITLE15=In The Upper Room (Pt. 1-2)
TTITLE16=I Will Move On Up A Little Higher
TTITLE17=Oh Lord Is It I?
EXTD=
EXTT0=
EXTT1=
EXTT2=
EXTT3=
EXTT4=
EXTT5=
EXTT6=
EXTT7=
EXTT8=
EXTT9=
EXTT10=
EXTT11=
EXTT12=
EXTT13=
EXTT14=
EXTT15=
EXTT16=
EXTT17=
PLAYORDER=
